Coordinates
version=1
nRows=18
nColumns=22
inDegrees=yes

Units are S.I. units (second, meters, Newtons, ...)
If the header above contains a line with 'inDegrees', this indicates whether rotational values are in degrees (yes) or radians (no).

endheader
time	pelvis_tilt	pelvis_list	pelvis_rotation	pelvis_tx	pelvis_ty	pelvis_tz	hip_flexion_r	hip_adduction_r	hip_rotation_r	knee_angle_r	ankle_angle_r	subtalar_angle_r	hip_flexion_l	hip_adduction_l	hip_rotation_l	knee_angle_l	ankle_angle_l	subtalar_angle_l	lumbar_extension	lumbar_bending	lumbar_rotation
      3.88000000	      2.00460584	      0.45138979	     79.09730378	     -0.11526167	      1.01542665	     -0.55311835	      8.90967430	      3.91393500	     -1.53310249	    -20.56391578	      9.96120861	     -4.36069725	      5.87708491	     -0.33354686	     -7.65002742	    -15.86957730	     11.15299417	     -4.43919890	    -10.96594592	      0.49814706	      1.06304821
      3.89000000	      2.09167671	      0.57144672	     78.93687609	     -0.11413377	      1.01589885	     -0.55475882	      8.48490747	      4.04346578	     -1.34408476	    -20.24943208	      9.94923062	     -4.32995208	      5.48884286	     -0.43430620	     -7.80558770	    -15.66099321	     11.19120696	     -4.42417933	    -11.02740723	      0.57711666	      1.28571068
      3.90000000	      2.18896844	      0.68858313	     78.79261994	     -0.11304953	      1.01637869	     -0.55639771	      8.05458875	      4.16917546	     -1.19345691	    -19.92151810	      9.93412555	     -4.24861268	      5.09563927	     -0.54142816	     -7.95069707	    -15.43693836	     11.23414292	     -4.38226807	    -11.08721089	      0.66972200	      1.49135094
      3.91000000	      2.28991985	      0.81706084	     78.67885794	     -0.11204543	      1.01686884	     -0.55803662	      7.60229845	      4.27910549	     -1.10861463	    -19.57475882	      9.93276566	     -4.14487130	      4.68382570	     -0.64100940	     -8.05042662	    -15.19509924	     11.27525480	     -4.30596133	    -11.16329879	      0.76856547	      1.66481256
      3.92000000	      2.39302753	      0.87934795	     78.54248719	     -0.11098695	      1.01722550	     -0.55958533	      7.23390083	      4.40807770	     -1.00653518	    -19.24362110	      9.88770032	     -4.05127453	      4.35821701	     -0.76754748	     -8.22611709	    -14.98047428	     11.35448252	     -4.23097499	    -11.16916151	      0.87610337	      1.85393862
      3.93000000	      2.50097498	      0.98366735	     78.42718185	     -0.10997045	      1.01763345	     -0.56113113	      6.80532244	      4.52583656	     -0.94942839	    -18.88469956	      9.86025725	     -3.96581106	      3.97462467	     -0.88341468	     -8.36026825	    -14.73834337	     11.42409602	     -4.11534766	    -11.22764417	      0.97741918	      2.02737052
      3.94000000	      2.60734069	      1.05821605	     78.31166248	     -0.10896728	      1.01796015	     -0.56262022	      6.41550497	      4.64752810	     -0.90497113	    -18.53139160	      9.81829260	     -3.91478399	      3.63156311	     -1.00518129	     -8.51194230	    -14.50752867	     11.51030375	     -4.00721229	    -11.25737326	      1.08339337	      2.19179224
      3.95000000	      2.71161357	      1.13960831	     78.20378806	     -0.10796357	      1.01827099	     -0.56407074	      6.02056504	      4.76708080	     -0.87226725	    -18.17816279	      9.77903233	     -3.88864019	      3.28152171	     -1.12361810	     -8.65982390	    -14.27143057	     11.59182334	     -3.89913680	    -11.29819114	      1.17850181	      2.34971266
      3.96000000	      2.81238880	      1.21031258	     78.10361830	     -0.10697092	      1.01853345	     -0.56547393	      5.64556334	      4.88653381	     -0.84721960	    -17.83568693	      9.73742692	     -3.88519205	      2.95174104	     -1.24111994	     -8.80441104	    -14.04441437	     11.67229621	     -3.80981368	    -11.32939049	      1.26992775	      2.49452394
      3.97000000	      2.90825310	      1.28040601	     78.01441089	     -0.10598128	      1.01876840	     -0.56684245	      5.28191177	      5.00289007	     -0.82670808	    -17.50891987	      9.70043771	     -3.89608435	      2.62893362	     -1.35419312	     -8.93943814	    -13.82203719	     11.74452628	     -3.73698457	    -11.35930161	      1.35166266	      2.62526466
      3.98000000	      3.00085913	      1.34062722	     77.93233215	     -0.10499313	      1.01896685	     -0.56816497	      4.94032377	      5.12028595	     -0.80037700	    -17.19850422	      9.66205672	     -3.91418197	      2.32854719	     -1.46721440	     -9.06639107	    -13.61498113	     11.81430607	     -3.68286593	    -11.37941819	      1.42854489	      2.74743593
      3.99000000	      3.08188506	      1.39302642	     77.85990286	     -0.10402585	      1.01913088	     -0.56946219	      4.62632082	      5.22697785	     -0.77568206	    -16.91764975	      9.63296212	     -3.93196082	      2.04695771	     -1.56872818	     -9.17985769	    -13.41759820	     11.87376951	     -3.64301703	    -11.38610763	      1.49439233	      2.84937758
      4.00000000	      3.15346489	      1.42522811	     77.79522021	     -0.10308031	      1.01925161	     -0.57071767	      4.34570679	      5.32923950	     -0.74045379	    -16.65013682	      9.60946205	     -3.94582812	      1.80557444	     -1.66393448	     -9.26746020	    -13.24631882	     11.92880354	     -3.61522348	    -11.36835213	      1.55358612	      2.95143227
      4.01000000	      3.22853974	      1.47532640	     77.74175655	     -0.10215756	      1.01940243	     -0.57197151	      4.05587980	      5.43049331	     -0.70761086	    -16.40409086	      9.58015593	     -3.95659740	      1.54498809	     -1.75855971	     -9.36224100	    -13.06967381	     11.97740926	     -3.58851887	    -11.36904387	      1.61001248	      3.03304101
      4.02000000	      3.29550940	      1.50885647	     77.70322764	     -0.10128983	      1.01952279	     -0.57320542	      3.79737506	      5.52482226	     -0.68128916	    -16.17750334	      9.55760352	     -3.96009120	      1.31662861	     -1.84545597	     -9.42895700	    -12.90999338	     12.02097721	     -3.56576752	    -11.34781651	      1.66497705	      3.09413349
      4.03000000	      3.35195230	      1.52052469	     77.67508036	     -0.10047459	      1.01960470	     -0.57440942	      3.57530810	      5.61119508	     -0.65781751	    -15.96649986	      9.54240613	     -3.95987318	      1.12984995	     -1.92395147	     -9.46958103	    -12.77421120	     12.06116795	     -3.54661782	    -11.29939038	      1.71666018	      3.14665587
      4.04000000	      3.40764584	      1.53456186	     77.66199628	     -0.09972080	      1.01969207	     -0.57560379	      3.35914881	      5.69392585	     -0.64502976	    -15.76934309	      9.52330637	     -3.95569209	      0.95147924	     -1.99934761	     -9.50024409	    -12.65068915	     12.10112069	     -3.52692727	    -11.25273593	      1.76990507	      3.18558458
      4.05000000	      3.42439242	      1.49040005	     77.66069054	     -0.09903418	      1.01965763	     -0.57675098	      3.24285850	      5.74794518	     -0.62178678	    -15.62420516	      9.54985340	     -3.95339134	      0.85951579	     -2.04327434	     -9.49812587	    -12.54649025	     12.13346429	     -3.51750683	    -11.13075791	      1.79681490	      3.19770753
